<svg xmlns="http://www.w3.org/2000/svg" width="322" height="352" viewBox="0 0 322 352">
  <g fill="none" fill-rule="evenodd" opacity=".3">
    <path fill="#2B3030" fill-rule="nonzero" stroke="#2B3030" d="M253.6909,350.6563 L109.0653,307.0363 C104.125158,305.53996 101.328253,300.327369 102.8129,295.3837 L158.54,110.6171 C160.036427,105.676985 165.249035,102.88014 170.1927,104.3648 L314.8183,147.9848 C319.758415,149.481227 322.55526,154.693835 321.0706,159.6375 L265.3435,344.4039 C263.84716,349.344042 258.634569,352.140947 253.6909,350.6563 Z M113.6185,297.0891 L255.3967,339.8507 L310.265,157.9319 L168.4868,115.17 L113.6185,297.0891 Z"/>
    <circle cx="71.63" cy="139.192" r="34.367" fill="#2B3030" fill-rule="nonzero"/>
    <path fill="#CBD1D1" fill-rule="nonzero" d="M267.6692,141.9932 L193.8982,119.7432 C192.471155,119.312414 191.663217,117.806657 192.0933,116.3794 L192.9578,113.5128 L163.43,104.607 L108.5618,286.5258 L250.34,329.2873 L305.2082,147.3686 L271.8976,137.3218 L271.0329,140.1883 C270.60239,141.615521 269.096462,142.423575 267.6692,141.9932 Z M240.5286,286.1449 C240.433023,286.461426 240.141441,286.6781 239.8108,286.6781 C239.737378,286.6781 239.664355,286.667299 239.594,286.6463 L141.093,256.9374 C140.696294,256.817665 140.471765,256.399006 140.5915,256.0023 C140.711235,255.605594 141.129894,255.381065 141.5266,255.5008 L240.0276,285.2098 C240.21806,285.267334 240.377855,285.398187 240.471816,285.573563 C240.565777,285.748938 240.586203,285.954461 240.5286,286.1449 L240.5286,286.1449 Z M245.8743,268.4217 C245.778723,268.738226 245.487141,268.9549 245.1565,268.9549 C245.083083,268.9549 245.01006,268.944166 244.9397,268.9232 L146.4378,239.2142 C146.041122,239.094492 145.816592,238.675879 145.9363,238.2792 C146.056008,237.882522 146.474622,237.657992 146.8713,237.7777 L245.3733,267.4867 C245.563737,267.544235 245.723514,267.675073 245.817472,267.850425 C245.911431,268.025777 245.931873,268.231274 245.8743,268.4217 L245.8743,268.4217 Z M251.219,250.6986 C251.123423,251.015126 250.831841,251.2318 250.5012,251.2318 C250.427778,251.2318 250.354755,251.220999 250.2844,251.2 L151.7835,221.4916 C151.386794,221.371892 151.162242,220.953256 151.28195,220.55655 C151.401658,220.159844 151.820294,219.935292 152.217,220.055 L250.718,249.7635 C250.90846,249.821034 251.068255,249.951887 251.162216,250.127263 C251.256177,250.302638 251.276603,250.508161 251.219,250.6986 L251.219,250.6986 Z M256.5647,232.9759 C256.469123,233.292426 256.177541,233.5091 255.8469,233.5091 C255.773483,233.5091 255.70046,233.498366 255.6301,233.4774 L157.1292,203.7684 C156.732521,203.648665 156.508015,203.230029 156.62775,202.83335 C156.747485,202.436671 157.166121,202.212165 157.5628,202.3319 L256.0637,232.0409 C256.254137,232.098435 256.413914,232.229273 256.507872,232.404625 C256.601831,232.579977 256.622273,232.785474 256.5647,232.9759 L256.5647,232.9759 Z M261.9104,215.2528 C261.814823,215.569326 261.523241,215.786 261.1926,215.786 C261.119178,215.786 261.046155,215.775199 260.9758,215.7542 L162.4739,186.0453 C162.077194,185.925565 161.852665,185.506906 161.9724,185.1102 C162.092135,184.713494 162.510794,184.488965 162.9075,184.6087 L261.4094,214.3177 C261.599786,214.375317 261.759486,214.506206 261.853367,214.681572 C261.947248,214.856937 261.967619,215.062414 261.91,215.2528 L261.9104,215.2528 Z M267.2561,197.5296 C267.160523,197.846126 266.868941,198.0628 266.5383,198.0628 C266.464883,198.0628 266.39186,198.052066 266.3215,198.0311 L167.82,168.3226 C167.423322,168.202865 167.198815,167.784229 167.31855,167.38755 C167.438285,166.990872 167.856921,166.766365 168.2536,166.8861 L266.7555,196.5946 C266.945955,196.652214 267.105709,196.78315 267.199598,196.958585 C267.293486,197.13402 267.313811,197.339574 267.2561,197.53 L267.2561,197.5296 Z M272.6008,179.807 C272.505233,180.12349 272.213704,180.3402 271.8831,180.3402 C271.809677,180.3402 271.736654,180.329406 271.6663,180.3084 L173.1653,150.6 C172.768594,150.480265 172.544065,150.061606 172.6638,149.6649 C172.783535,149.268194 173.202194,149.043665 173.5989,149.1634 L272.0999,178.8724 C272.496224,178.992259 272.72044,179.41061 272.6008,179.807 L272.6008,179.807 Z"/>
    <path fill="#728284" fill-rule="nonzero" d="M309.7615,137.4218 L275.0271,126.9456 L271.8977,137.3218 L305.2083,147.3686 L250.34,329.2873 L108.5618,286.5258 L163.43,104.607 L192.9576,113.5128 L196.0876,103.1366 L165.136,93.8014 C160.192367,92.3168048 154.979829,95.1136358 153.4834,100.0537 L97.7564,284.82 C96.2716141,289.763647 99.0684495,294.976322 104.0086,296.4727 L248.6343,340.0927 C253.577969,341.577347 258.79056,338.780442 260.2869,333.8403 L316.0139,149.0742 C317.498418,144.130594 314.70154,138.918142 309.7615,137.4218 Z"/>
    <path fill="#E1EAEA" fill-rule="nonzero" d="M192.9578,113.5128 L192.0933,116.3794 C191.663217,117.806657 192.471155,119.312414 193.8982,119.7432 L267.6692,141.9932 C269.096493,142.423639 270.602491,141.615572 271.033,140.1883 L271.8977,137.3218 L275.0271,126.9456 L277.3333,119.2995 C277.540084,118.614074 277.466077,117.874574 277.127564,117.24372 C276.78905,116.612866 276.213767,116.142348 275.5283,115.9357 L262.8792,112.1206 C265.3306,102.8473 256.8292,92.2393 243.6348,88.2598 C230.4404,84.2803 217.4915,88.4187 214.4067,97.5008 L201.7573,93.6856 C200.330038,93.2552252 198.82411,94.0632789 198.3936,95.4905 L196.0874,103.1366 L192.9578,113.5128 Z M260.6578,129.6312 C261.014367,129.738294 261.238397,130.090744 261.184015,130.459053 C261.129633,130.827362 260.813302,131.100026 260.441,131.099501 C260.367578,131.099501 260.294555,131.088699 260.2242,131.0677 L206.1422,114.7557 C205.745521,114.635992 205.520992,114.217379 205.6407,113.8207 C205.760408,113.424021 206.179021,113.199492 206.5757,113.3192 L260.6578,129.6312 Z M233.15,103.0553 C234.069422,100.006736 237.286107,98.2807226 240.334674,99.2001374 C243.38324,100.119552 245.109261,103.336233 244.189854,106.384801 C243.270447,109.43337 240.053771,111.159399 237.0052,110.24 C233.956683,109.320501 232.23069,106.103874 233.15,103.0553 Z"/>
    <path fill="#FFF" fill-rule="nonzero" d="M206.5754,113.3192 C206.178721,113.199492 205.760108,113.424021 205.6404,113.8207 C205.520692,114.217379 205.745221,114.635992 206.1419,114.7557 L260.2239,131.0677 C260.294255,131.088699 260.367278,131.099501 260.4407,131.099501 C260.813002,131.100026 261.129333,130.827362 261.183715,130.459053 C261.238097,130.090744 261.014067,129.738294 260.6575,129.6312 L206.5754,113.3192 Z"/>
    <path fill="#A4B1B2" fill-rule="nonzero" d="M172.6643 149.6644C172.606697 149.854839 172.627123 150.060362 172.721084 150.235737 172.815045 150.411113 172.97484 150.541966 173.1653 150.5995L271.6663 180.3084C271.736654 180.329406 271.809677 180.340201 271.8831 180.340201 272.255402 180.340726 272.571733 180.068062 272.626115 179.699753 272.680497 179.331444 272.456467 178.978994 272.0999 178.8719L173.5989 149.1629C173.408461 149.105303 173.202934 149.125799 173.02762 149.219871 172.852306 149.313944 172.721596 149.47387 172.6643 149.6644zM266.7551 196.5946L168.2532 166.8861C167.856522 166.766365 167.437885 166.990872 167.31815 167.38755 167.198415 167.784229 167.422922 168.202865 167.8196 168.3226L266.3215 198.0311C266.39186 198.052066 266.464883 198.0628 266.5383 198.0628 266.910473 198.06316 267.226613 197.790541 267.28098 197.42236 267.335347 197.05418 267.111493 196.701823 266.7551 196.5946L266.7551 196.5946zM261.4094 214.3177L162.9075 184.6087C162.650876 184.531245 162.372424 184.59658 162.177034 184.780096 161.981644 184.963611 161.899 185.237425 161.960234 185.498396 162.021468 185.759366 162.217276 185.967845 162.4739 186.0453L260.9758 215.7542C261.046155 215.775199 261.119178 215.786001 261.1926 215.786001 261.564902 215.786526 261.881233 215.513862 261.935615 215.145553 261.989997 214.777244 261.765967 214.424794 261.4094 214.3177L261.4094 214.3177zM256.0637 232.0409L157.5628 202.3319C157.166121 202.212165 156.747485 202.436671 156.62775 202.83335 156.508015 203.230029 156.732521 203.648665 157.1292 203.7684L255.6301 233.4774C255.70046 233.498366 255.773483 233.5091 255.8469 233.5091 256.219073 233.50946 256.535213 233.236841 256.58958 232.86866 256.643947 232.50048 256.420093 232.148123 256.0637 232.0409L256.0637 232.0409zM250.718 249.7635L152.217 220.055C151.820294 219.935292 151.401658 220.159844 151.28195 220.55655 151.162242 220.953256 151.386794 221.371892 151.7835 221.4916L250.2844 251.2C250.354755 251.220999 250.427778 251.231801 250.5012 251.231801 250.873502 251.232326 251.189833 250.959662 251.244215 250.591353 251.298597 250.223044 251.074567 249.870594 250.718 249.7635L250.718 249.7635zM245.3733 267.4867L146.8713 237.7777C146.474621 237.657992 146.056008 237.882521 145.9363 238.2792 145.816592 238.675879 146.041121 239.094492 146.4378 239.2142L244.9397 268.9232C245.01006 268.944166 245.083083 268.9549 245.1565 268.9549 245.528673 268.95526 245.844813 268.682641 245.89918 268.31446 245.953547 267.94628 245.729693 267.593923 245.3733 267.4867L245.3733 267.4867zM240.0276 285.21L141.5266 255.501C141.129894 255.381265 140.711235 255.605794 140.5915 256.0025 140.471765 256.399206 140.696294 256.817865 141.093 256.9376L239.594 286.6465C239.664355 286.667499 239.737378 286.678301 239.8108 286.678301 240.183102 286.678826 240.499433 286.406162 240.553815 286.037853 240.608197 285.669544 240.384167 285.317094 240.0276 285.21L240.0276 285.21z"/>
    <circle cx="56.341" cy="123.903" r="43.016" fill="#D9E7E8" fill-rule="nonzero" transform="rotate(-67.5 56.34 123.903)"/>
    <circle cx="56.341" cy="123.903" r="34.367" fill="#7A8B8E" fill-rule="nonzero"/>
    <rect width="9.976" height="30.264" x="14.173" y="71.591" fill="#D9E7E8" fill-rule="nonzero" rx="4.988" transform="rotate(-45 19.16 86.723)"/>
    <path stroke="#D9E7E8" stroke-linecap="round" stroke-width="1.5" d="M41.1191 139.1243C36.0759981 134.087961 33.8559114 126.880104 35.1914 119.8791M71.5623 108.6811C75.5993421 112.718107 77.8673317 118.193485 77.8673317 123.9027 77.8673317 129.611915 75.5993421 135.087293 71.5623 139.1243M66.8984 115.3405C71.6270944 120.069266 71.6270944 127.736034 66.8984 132.4648"/>
    <path stroke="#FFF" stroke-linecap="round" stroke-width="1.5" d="M0.7242,65.45 C0.7242,57.385 6.7242,57.385 6.7242,49.32 C6.7242,41.255 0.7242,41.2546 0.7242,33.1892 C0.7242,25.1238 6.7242,25.1227 6.7242,17.0562 C6.7242,8.9897 0.7242,8.9896 0.7242,0.9231" opacity=".87" transform="translate(52 34)"/>
    <path stroke="#FFF" stroke-linecap="round" stroke-width="1.5" d="M0.6549,65.277 C0.6549,57.2119 6.6549,57.2119 6.6549,49.147 C6.6549,41.0821 0.6549,41.0816 0.6549,33.0162 C0.6549,24.9508 6.6549,24.9497 6.6549,16.8831 C6.6549,8.8165 0.6549,8.8166 0.6549,0.7501" opacity=".87" transform="translate(67)"/>
  </g>
</svg>
