<svg xmlns="http://www.w3.org/2000/svg" width="480" height="366" viewBox="0 0 480 366">
  <g fill="none" opacity=".3">
    <rect width="268.604" height="169.22" x="89.811" y="155.156" fill="#2B3030" rx="4.585" transform="rotate(-20.37 224.113 239.766)"/>
    <path fill="#2B3030" d="M437.5737,237.6733 L440.6024,245.1333 C442.096811,244.801285 443.612782,245.595606 444.1904,247.0133 L445.7679,250.8988 C446.341863,252.317988 445.808752,253.944232 444.506,254.7482 L446.8338,260.4821 L467.3949,252.1347 L467.7923,253.1136 L425.6923,270.2057 L425.2948,269.2267 L445.8548,260.8795 L443.5269,255.1456 C442.032667,255.477051 440.517151,254.682879 439.9393,253.2656 L438.3618,249.38 C437.787684,247.96103 438.320655,246.334866 439.6233,245.531 L436.5946,238.071 C425.271274,242.975014 419.934327,256.022162 424.5746,267.4561 L436.0084,295.6194 C440.728303,307.245193 453.979085,312.84355 465.6049,308.1237 L465.6049,308.1237 C471.187973,305.857276 475.642027,301.465785 477.987196,295.915329 C480.332364,290.364872 480.376538,284.110127 478.11,278.5271 L466.6762,250.3638 C462.033099,238.930619 449.11121,233.295872 437.5737,237.6733 L437.5737,237.6733 Z M468.851,284.4213 C467.1243,285.1224 464.7916,283.3933 463.641,280.5594 C462.4904,277.7255 462.9577,274.8594 464.6845,274.1587 C466.4113,273.458 468.7439,275.1867 469.8945,278.0206 C471.0451,280.8545 470.5778,283.72 468.851,284.4213 L468.851,284.4213 Z"/>
    <path fill="#2B3030" d="M440.0932 245.2827C440.258416 245.218677 440.428758 245.168765 440.6024 245.1335L437.5737 237.6735 437.5686 237.661 436.5896 238.0585 436.5947 238.071 439.6234 245.531C439.772697 245.435098 439.92986 245.352033 440.0932 245.2827zM443.527 255.1461L445.8549 260.88 425.2949 269.2272 425.6924 270.2062 467.7924 253.1141 467.395 252.1352 446.8339 260.4826 444.5061 254.7487C444.20977 254.945576 443.876812 255.080732 443.5271 255.1461L443.527 255.1461z"/>
    <path fill="#2B3030" d="M439.6234,245.531 C438.320755,246.334866 437.787784,247.96103 438.3619,249.38 L439.9394,253.2656 C440.598163,254.866755 442.427087,255.634432 444.031296,254.983142 C445.635505,254.331853 446.411702,252.506528 445.7679,250.8993 L444.1904,247.0138 C443.853001,246.146449 443.143776,245.476571 442.258598,245.189174 C441.373421,244.901778 440.405956,245.027273 439.6234,245.531 L439.6234,245.531 Z"/>
    <ellipse cx="466.768" cy="279.29" fill="#2B3030" rx="3.375" ry="5.538" transform="rotate(-22.096 466.768 279.29)"/>
    <ellipse cx="466.768" cy="279.29" fill="#2B3030" opacity=".61" rx="3.375" ry="5.538" transform="rotate(-22.096 466.768 279.29)"/>
    <path fill="#A4B1B2" d="M112.1546 249.2084L112.1696 249.2029 107.791 237.41 107.7752 237.4158 107.3552 236.2822 107.3703 236.2765 104.7067 229.1028 85.108 271.85 70.0314 231.2451 90.4387 186.7339 131.0438 171.6574 121.8506 191.7088 126.1391 190.1166 127.1405 189.7445 127.1405 189.7445 139.2369 185.2532 139.7551 185.0607 139.7551 185.0607 142.4908 184.0449 151.6839 163.9935 153.1496 163.4493 62.2757 197.1907C59.9030193 198.072095 58.6938709 200.709846 59.5748 203.0827L92.7715 292.49 112.3605 249.7634 112.1546 249.2084zM367.0086 259.6148L339.9851 186.8328 343.1864 195.4554 300.1478 289.3291 287.6559 293.9673 338.983 184.1342 311.3138 109.6133C310.432646 107.240221 307.794637 106.030703 305.4215 106.9117L171.9866 156.4556 162.7934 176.507 163.8493 176.1149 163.8493 176.1149 164.9829 175.6938 164.9829 175.6938 189.5437 166.5745 190.2113 166.3264 190.2113 166.3264 202.6413 161.7111 202.8257 161.6426 202.8257 161.6426 214.4788 157.3158 215.4396 156.9589 215.4396 156.9589 226.9196 152.6964 226.9196 152.6964 228.0532 152.2752 228.0532 152.2752 252.9476 143.032 253.2816 142.9079 253.2816 142.9079 280.0816 132.9573C281.113902 132.573998 282.256189 132.616481 283.257168 133.075403 284.258146 133.534324 285.035818 134.372091 285.4191 135.4044L296.7624 165.955 296.7624 165.955 296.8419 166.1695 301.5619 178.8816 301.5619 178.8816 301.8498 179.658 309.7552 200.9496C310.553406 203.099202 309.457895 205.488874 307.3083 206.2871L294.6342 210.9929 294.6342 210.9929 293.5006 211.4141 293.5006 211.4141 281.287 215.9489 280.2648 216.3289 280.2648 216.3289 267.6532 221.0115 267.5163 221.0624 267.5163 221.0624 254.974 225.72 254.0532 226.0621 254.0532 226.0621 179.3287 253.8069 178.3687 254.1635 178.3687 254.1635 165.6946 258.8694 164.94 259.1494 164.94 259.1494 151.6015 264.1019 151.5704 264.1135 151.5704 264.1135 139.6204 268.5506 139.6204 268.5506 138.4868 268.9718 138.4868 268.9718 125.7009 273.7192C123.551243 274.517326 121.161588 273.421733 120.3634 271.2721L119.9084 270.0466 100.31 312.7929 115.27 353.0842C115.693122 354.223812 116.551626 355.148662 117.656648 355.655293 118.76167 356.161923 120.022692 356.208832 121.1623 355.7857L364.3075 265.5071C366.680462 264.625831 367.889767 261.9878 367.0086 259.6148L367.0086 259.6148zM271.9057 285.6369L204.31 310.7348C202.196187 311.519598 199.846392 310.442278 199.0615 308.3285L184.9085 270.2105C184.123692 268.096716 185.200962 265.746932 187.3147 264.962L254.9102 239.8641C257.024013 239.079302 259.373808 240.156622 260.1587 242.2704L274.3118 280.3884C275.096498 282.502152 274.019317 284.85184 271.9057 285.6369L271.9057 285.6369zM334.9287 276.4151L314.6261 283.9534 348.5622 209.9334 355.8402 230.8034 334.9287 276.4151z"/>
    <path fill="#A4B1B2" d="M102.7716,224.3963 L102.3516,223.2627 L102.5157,223.2017 L98.1096,211.3347 L98.1096,211.3347 L97.7073,210.2498 L96.0273,205.7258 C95.6440343,204.693498 95.6865473,203.551224 96.1454865,202.550267 C96.6044257,201.54931 97.4421971,200.771663 98.4745,200.3884 L114.302,194.5116 L114.5272,194.428 L114.5272,194.428 L121.8512,191.708 L131.0444,171.6566 L90.4387,186.7339 L70.0314,231.2451 L85.108,271.85 L104.7064,229.1028 L102.9364,224.335 L102.7716,224.3963 Z"/>
    <path fill="#D9E7E8" d="M102.7716,224.3963 L102.3516,223.2627 L102.5157,223.2017 L98.1096,211.3347 L98.1096,211.3347 L97.7073,210.2498 L96.0273,205.7258 C95.6440343,204.693498 95.6865473,203.551224 96.1454865,202.550267 C96.6044257,201.54931 97.4421971,200.771663 98.4745,200.3884 L114.302,194.5116 L114.5272,194.428 L114.5272,194.428 L121.8512,191.708 L131.0444,171.6566 L90.4387,186.7339 L70.0314,231.2451 L85.108,271.85 L104.7064,229.1028 L102.9364,224.335 L102.7716,224.3963 Z" opacity=".21"/>
    <path fill="#7A8B8E" d="M171.9866,156.4555 L171.9866,156.4555 L305.4215,106.9116 L305.5164,106.8764 C306.894385,106.364787 307.751952,104.985985 307.6016,103.5238 L297.2567,2.8969 C297.154766,1.90456439 296.599251,1.01529183 295.75217,0.488438729 C294.905089,-0.0384143758 293.861845,-0.143511108 292.9267,0.2038 L2.1035,108.1851 C1.16831388,108.532273 0.446458853,109.292725 0.148425137,110.244712 C-0.149608579,111.196698 0.00973799609,112.233024 0.58,113.0515 L58.4132,196.0463 C59.2535463,197.252279 60.8031248,197.737316 62.1811,197.2257 L62.2754,197.1907 L153.15,163.45 L171.9866,156.4555 Z M20.4907,120.5807 L20.3645,120.6276 L20.1545,120.0622 L16.5974,114.5722 L286.1124,14.5022 L286.997,20.9592 L287.2151,21.5472 L287.0842,21.5958 L298.3875,104.0951 L65.7673,190.466 L20.4907,120.5807 Z"/>
    <polygon fill="#D9E7E8" points="92.772 292.49 100.31 312.793 100.31 312.793 92.772 292.49" opacity=".21"/>
    <polygon fill="#A4B1B2" points="117.417 263.337 117.402 263.343 116.981 262.209 116.997 262.204 112.59 250.336 112.575 250.342 112.361 249.764 92.772 292.49 100.31 312.793 119.908 270.046"/>
    <polygon fill="#D9E7E8" points="117.417 263.337 117.402 263.343 116.981 262.209 116.997 262.204 112.59 250.336 112.575 250.342 112.361 249.764 92.772 292.49 100.31 312.793 119.908 270.046" opacity=".21"/>
    <polygon fill="#A4B1B2" points="151.684 163.994 142.491 184.045 151.235 180.798 151.235 180.798 152.369 180.377 152.369 180.377 162.793 176.507 171.987 156.456 153.15 163.45"/>
    <polygon fill="#D9E7E8" points="151.684 163.994 142.491 184.045 151.235 180.798 151.235 180.798 152.369 180.377 152.369 180.377 162.793 176.507 171.987 156.456 153.15 163.45" opacity=".21"/>
    <polygon fill="#7A8B8E" points="153.15 163.45 171.987 156.456 171.987 156.456"/>
    <polygon fill="#D9E7E8" points="153.15 163.45 171.987 156.456 171.987 156.456" opacity=".21"/>
    <polygon fill="#E1EAEA" points="286.795 20.414 286.997 20.959 286.113 14.502 16.598 114.572 20.155 120.062 19.944 119.494"/>
    <path fill="#E1EAEA" d="M298.3879,104.0951 L287.0846,21.5958 L20.4907,120.5807 L65.7673,190.466 L298.3879,104.0951 Z M124.3914,149.9612 C124.098642,149.9612 123.847914,149.751534 123.796254,149.46337 C123.744594,149.175205 123.906851,148.891439 124.1814,148.7898 L226.9677,110.6257 C227.171298,110.54601 227.402058,110.582449 227.571195,110.720997 C227.740331,110.859545 227.821489,111.078614 227.783443,111.293917 C227.745398,111.50922 227.594076,111.687208 227.3877,111.7594 L124.6014,149.9234 C124.534196,149.948356 124.463088,149.9612 124.3914,149.9612 Z M227.7925,121.3212 L130.7791,157.342 C130.575853,157.420229 130.346238,157.383085 130.178022,157.244765 C130.009806,157.106445 129.928995,156.888334 129.966479,156.673801 C130.003963,156.459269 130.153947,156.281483 130.3591,156.2084 L227.3726,120.1876 C227.575847,120.109371 227.805462,120.146515 227.973678,120.284835 C228.141894,120.423155 228.222705,120.641266 228.185221,120.855799 C228.147737,121.070331 227.997753,121.248117 227.7926,121.3212 L227.7925,121.3212 Z M227.6493,116.995 L127.7852,154.0742 C127.581953,154.152429 127.352338,154.115285 127.184122,153.976965 C127.015906,153.838645 126.935095,153.620534 126.972579,153.406001 C127.010063,153.191469 127.160047,153.013683 127.3652,152.9406 L227.2293,115.8613 C227.432898,115.78161 227.663658,115.818049 227.832795,115.956597 C228.001931,116.095145 228.083089,116.314214 228.045043,116.529517 C228.006998,116.74482 227.855676,116.922808 227.6493,116.995 L227.6493,116.995 Z M91.4793,104.2566 L222.6814,55.5421 C223.40548,55.2732574 224.214417,55.3664291 224.858418,55.7928442 C225.50242,56.2192594 225.904017,56.9276239 225.9392,57.6992 L228.026,103.4767 C228.057765,104.176907 227.633636,104.817465 226.9766,105.0616 L121.0512,144.3916 C120.400338,144.633253 119.667868,144.43109 119.2331,143.8898 L90.4356,108.0386 C89.9488624,107.432724 89.7829709,106.629838 89.989731,105.880672 C90.196491,105.131506 90.750705,104.52736 91.4793,104.2569 L91.4793,104.2566 Z"/>
    <path fill="#BDC9C9" d="M117.4173,263.337 L119.9083,270.0456 L120.3633,271.2711 C121.161488,273.420733 123.551143,274.516326 125.7008,273.7182 L138.4867,268.9708 L134.0953,257.1446 L117.4173,263.337 Z"/>
    <rect width="12.246" height="12.659" x="233.308" y="159.285" fill="#BDC9C9" transform="rotate(-20.37 239.43 165.614)"/>
    <rect width="12.246" height="12.738" x="243.928" y="170.137" fill="#BDC9C9" transform="rotate(-20.37 250.051 176.506)"/>
    <rect width="12.246" height="12.659" x="220.694" y="163.968" fill="#BDC9C9" transform="rotate(-20.37 226.817 170.298)"/>
    <rect width="12.246" height="12.58" x="242.976" y="185.363" fill="#BDC9C9" transform="rotate(-20.37 249.099 191.652)"/>
    <rect width="12.246" height="12.659" x="240.954" y="200.824" fill="#BDC9C9" transform="rotate(-20.37 247.077 207.154)"/>
    <rect width="53.042" height="12.659" x="113.135" y="240.709" fill="#BDC9C9" transform="rotate(-20.371 139.656 247.039)"/>
    <polygon fill="#BDC9C9" points="141.728 193.849 138.622 185.482 139.237 185.253 127.14 189.745 130.247 198.112"/>
    <rect width="12.246" height="12.659" x="215.726" y="210.191" fill="#BDC9C9" transform="rotate(-20.37 221.85 216.52)"/>
    <rect width="12.246" height="12.659" x="195.465" y="173.336" fill="#BDC9C9" transform="rotate(-20.37 201.588 179.665)"/>
    <rect width="12.246" height="12.659" x="228.34" y="205.508" fill="#BDC9C9" transform="rotate(-20.37 234.463 211.837)"/>
    <rect width="12.246" height="12.659" x="208.08" y="168.652" fill="#BDC9C9" transform="rotate(-20.37 214.203 174.981)"/>
    <rect width="12.246" height="12.58" x="255.59" y="180.679" fill="#BDC9C9" transform="rotate(-20.369 261.713 186.969)"/>
    <rect width="12.246" height="12.659" x="165.269" y="228.926" fill="#BDC9C9" transform="rotate(-20.37 171.392 235.255)"/>
    <rect width="12.246" height="12.659" x="253.568" y="196.141" fill="#BDC9C9" transform="rotate(-20.37 259.691 202.47)"/>
    <rect width="12.246" height="12.738" x="256.543" y="165.453" fill="#BDC9C9" transform="rotate(-20.37 262.665 171.822)"/>
    <rect width="12.246" height="12.659" x="258.536" y="149.918" fill="#BDC9C9" transform="rotate(-20.37 264.66 156.247)"/>
    <rect width="12.247" height="12.659" x="182.861" y="178.021" fill="#BDC9C9" transform="rotate(-20.37 188.985 184.35)"/>
    <rect width="12.246" height="12.659" x="170.237" y="182.703" fill="#BDC9C9" transform="rotate(-20.37 176.36 189.032)"/>
    <rect width="12.246" height="12.659" x="132.394" y="196.754" fill="#BDC9C9" transform="rotate(-20.37 138.517 203.083)"/>
    <rect width="12.246" height="12.738" x="130.4" y="212.289" fill="#BDC9C9" transform="rotate(-20.368 136.524 218.658)"/>
    <rect width="12.246" height="12.579" x="142.062" y="222.832" fill="#BDC9C9" transform="rotate(-20.37 148.185 229.121)"/>
    <polygon fill="#BDC9C9" points="250.796 213.814 255.187 225.641 254.974 225.72 267.517 221.062 263.126 209.236"/>
    <rect width="12.246" height="12.738" x="193.471" y="188.871" fill="#BDC9C9" transform="rotate(-20.37 199.594 195.24)"/>
    <rect width="12.247" height="12.738" x="218.711" y="179.505" fill="#BDC9C9" transform="rotate(-20.37 224.835 185.874)"/>
    <rect width="12.246" height="12.738" x="206.085" y="184.188" fill="#BDC9C9" transform="rotate(-20.37 212.209 190.557)"/>
    <rect width="12.246" height="12.738" x="231.314" y="174.821" fill="#BDC9C9" transform="rotate(-20.37 237.437 181.19)"/>
    <rect width="12.246" height="12.738" x="143.015" y="207.606" fill="#BDC9C9" transform="rotate(-20.37 149.138 213.975)"/>
    <rect width="12.246" height="12.659" x="203.112" y="214.875" fill="#BDC9C9" transform="rotate(-20.37 209.235 221.204)"/>
    <rect width="12.246" height="12.579" x="230.361" y="190.046" fill="#BDC9C9" transform="rotate(-20.37 236.485 196.336)"/>
    <rect width="12.246" height="12.738" x="168.243" y="198.239" fill="#BDC9C9" transform="rotate(-20.37 174.366 204.608)"/>
    <rect width="12.246" height="12.738" x="180.857" y="193.555" fill="#BDC9C9" transform="rotate(-20.37 186.98 199.924)"/>
    <rect width="12.246" height="12.579" x="154.676" y="218.148" fill="#BDC9C9" transform="rotate(-20.372 160.8 224.438)"/>
    <rect width="12.246" height="12.579" x="167.29" y="213.464" fill="#BDC9C9" transform="rotate(-20.37 173.414 219.754)"/>
    <rect width="12.748" height="12.615" x="137.026" y="254.111" fill="#BDC9C9" transform="rotate(-20.372 143.4 260.418)"/>
    <rect width="12.246" height="12.659" x="177.883" y="224.242" fill="#BDC9C9" transform="rotate(-20.368 184.006 230.571)"/>
    <rect width="12.246" height="12.738" x="155.629" y="202.922" fill="#BDC9C9" transform="rotate(-20.37 161.752 209.291)"/>
    <rect width="12.246" height="12.58" x="217.747" y="194.73" fill="#BDC9C9" transform="rotate(-20.37 223.87 201.02)"/>
    <rect width="12.246" height="12.579" x="179.905" y="208.781" fill="#BDC9C9" transform="rotate(-20.37 186.028 215.07)"/>
    <rect width="12.247" height="12.58" x="205.144" y="199.416" fill="#BDC9C9" transform="rotate(-20.37 211.268 205.706)"/>
    <rect width="12.246" height="12.579" x="192.519" y="204.097" fill="#BDC9C9" transform="rotate(-20.37 198.642 210.387)"/>
    <rect width="12.247" height="12.659" x="245.934" y="154.601" fill="#BDC9C9" transform="rotate(-20.37 252.057 160.93)"/>
    <polygon fill="#BDC9C9" points="264.26 208.815 268.651 220.641 267.654 221.011 280.266 216.329 275.874 204.503"/>
    <polygon fill="#BDC9C9" points="277.008 204.082 281.399 215.908 281.288 215.949 293.502 211.414 289.11 199.588"/>
    <rect width="12.246" height="12.659" x="190.497" y="219.559" fill="#BDC9C9" transform="rotate(-20.37 196.62 225.888)"/>
    <polygon fill="#BDC9C9" points="161.683 246.901 166.074 258.728 165.695 258.869 178.369 254.163 173.977 242.336"/>
    <polygon fill="#BDC9C9" points="148.314 251.865 152.704 263.692 151.602 264.101 164.94 259.149 160.549 247.322"/>
    <polygon fill="#BDC9C9" points="175.111 241.916 179.503 253.742 179.329 253.806 254.053 226.062 249.662 214.235"/>
    <path fill="#BDC9C9" d="M264.3624,193.9843 L268.7688,205.8511 L306.3894,191.8827 L306.8094,193.0163 L290.2438,199.1671 L294.6348,210.9936 L307.3089,206.2878 C309.458495,205.489574 310.554006,203.099902 309.7558,200.9503 L301.8504,179.6587 L301.9829,180.0159 L264.3624,193.9843 Z"/>
    <polygon fill="#BDC9C9" points="266.397 178.52 270.776 190.313 301.562 178.882 296.843 166.17 297.183 167.089"/>
    <polygon fill="#BDC9C9" points="217.413 165.748 214.306 157.38 214.479 157.316 202.826 161.643 205.933 170.011"/>
    <rect width="12.246" height="8.926" x="216.611" y="154.549" fill="#BDC9C9" transform="rotate(-20.371 222.734 159.012)"/>
    <polygon fill="#BDC9C9" points="179.571 179.799 176.464 171.431 177.598 171.01 180.704 179.378 192.185 175.115 189.078 166.748 189.544 166.575 164.983 175.694 168.09 184.062"/>
    <polygon fill="#BDC9C9" points="204.799 170.432 201.693 162.064 202.642 161.712 190.211 166.327 193.318 174.694"/>
    <polygon fill="#BDC9C9" points="242.642 156.381 239.535 148.014 240.669 147.592 243.775 155.96 255.256 151.697 252.149 143.33 252.948 143.033 228.054 152.276 231.161 160.644"/>
    <path fill="#BDC9C9" d="M267.87,147.0138 L264.7637,138.6462 L265.8973,138.2251 L269.0036,146.5928 L286.9336,139.9357 L287.3536,141.0693 L269.3308,147.7611 L273.7367,159.6284 L291.7597,152.9365 L292.1797,154.0702 L267.3222,163.3 L271.7563,175.2412 L296.7631,165.9563 L285.42,135.4053 C285.036718,134.372991 284.259046,133.535224 283.258068,133.076303 C282.257089,132.617381 281.114802,132.574898 280.0825,132.9582 L253.2825,142.9088 L256.3895,151.2763 L267.87,147.0138 Z"/>
    <rect width="19.965" height="12.659" x="99.688" y="207.464" fill="#BDC9C9" transform="rotate(-20.369 109.67 213.793)"/>
    <path fill="#BDC9C9" d="M96.0267,205.726 L97.7067,210.25 L97.6886,210.2013 L116.5,203.2167 L113.3932,194.8494 L114.3016,194.5118 L98.4741,200.3886 C97.4417606,200.771824 96.603943,201.549454 96.1449643,202.550416 C95.6859856,203.551377 95.6434445,204.693672 96.0267,205.726 Z"/>
    <polygon fill="#BDC9C9" points="117.633 202.796 129.114 198.533 126.007 190.166 126.139 190.117 121.851 191.709 114.527 194.428"/>
    <rect width="33.421" height="12.579" x="108.935" y="231.2" fill="#BDC9C9" transform="rotate(-20.369 125.646 237.49)"/>
    <rect width="12.246" height="12.659" x="145.008" y="192.07" fill="#BDC9C9" transform="rotate(-20.37 151.132 198.4)"/>
    <rect width="12.246" height="12.659" x="157.623" y="187.387" fill="#BDC9C9" transform="rotate(-20.37 163.746 193.716)"/>
    <rect width="12.246" height="12.659" x="119.78" y="201.437" fill="#BDC9C9" transform="rotate(-20.371 125.903 207.767)"/>
    <polygon fill="#BDC9C9" points="131.867 227.181 127.433 215.24 102.936 224.335 104.706 229.103 107.37 236.277"/>
    <polygon fill="#BDC9C9" points="142.862 193.428 154.342 189.166 151.235 180.798 142.491 184.045 139.755 185.061"/>
    <polygon fill="#BDC9C9" points="155.476 188.745 166.956 184.482 163.849 176.115 162.793 176.507 152.369 180.377"/>
    <path fill="#BDC9C9" d="M260.159,242.27 C259.374108,240.156222 257.024313,239.078902 254.9105,239.8637 L187.315,264.962 C185.201262,265.746932 184.123992,268.096716 184.9088,270.2105 L199.0618,308.3285 C199.846692,310.442278 202.196487,311.519598 204.3103,310.7348 L271.9057,285.6369 C274.019436,284.851961 275.096768,282.502236 274.3121,280.3884 L260.159,242.27 Z M238.2919,263.0177 C238.437745,263.084386 238.551076,263.206344 238.606903,263.35668 C238.662731,263.507017 238.65647,263.673385 238.5895,263.8191 L228.1326,286.6258 C227.993452,286.92928 227.63463,287.062498 227.33115,286.92335 C227.02767,286.784202 226.894452,286.42538 227.0336,286.1219 L237.4905,263.3153 C237.630141,263.012372 237.988508,262.879472 238.2919,263.0181 L238.2919,263.0177 Z M222.681,280.5888 L229.0435,266.7114 C229.184927,266.411907 229.541021,266.281988 229.842084,266.42004 C230.143148,266.558093 230.277061,266.912704 230.1424,267.2153 L223.78,281.0927 C223.640852,281.39618 223.28203,281.529398 222.97855,281.39025 C222.67507,281.251102 222.541852,280.89228 222.681,280.5888 L222.681,280.5888 Z M217.2987,277.8028 L221.0176,269.6915 C221.107613,269.495183 221.295523,269.361799 221.510545,269.341594 C221.725568,269.321389 221.935036,269.417432 222.060045,269.593544 C222.185054,269.769656 222.206613,269.999083 222.1166,270.1954 L218.3977,278.3066 C218.257215,278.607717 217.900032,278.738997 217.597981,278.600532 C217.29593,278.462067 217.162261,278.105772 217.2987,277.8028 Z M268.2415,283.4828 L205.1705,306.9007 C204.967253,306.978929 204.737638,306.941785 204.569422,306.803465 C204.401206,306.665145 204.320395,306.447034 204.357879,306.232501 C204.395363,306.017969 204.545347,305.840183 204.7505,305.7671 L267.8215,282.3492 C268.024747,282.270971 268.254362,282.308115 268.422578,282.446435 C268.590794,282.584755 268.671605,282.802866 268.634121,283.017399 C268.596637,283.231931 268.446653,283.409717 268.2415,283.4828 Z"/>
    <path fill="#C0C9C9" d="M165.0081,109.1131 C165.032025,109.18209 165.092507,109.231919 165.1648,109.2422 C165.236295,109.254482 165.30878,109.226662 165.3537,109.1697 L169.9071,103.5186 C169.951817,103.463317 169.96407,103.388552 169.939337,103.321887 C169.914605,103.255223 169.856553,103.20654 169.7866,103.1938 L162.648,101.8838 C162.635031,101.881166 162.621833,101.8798 162.6086,101.8798 C162.543165,101.881169 162.482427,101.91408 162.445547,101.968149 C162.408667,102.022219 162.400194,102.090779 162.4228,102.1522 L165.0081,109.1131 Z"/>
    <path fill="#C0C9C9" d="M119.2331,143.8894 C119.667868,144.43069 120.400338,144.632853 121.0512,144.3912 L226.9766,105.0612 C227.633636,104.817065 228.057765,104.176507 228.026,103.4763 L225.9392,57.6988 C225.904017,56.9272239 225.50242,56.2188594 224.858418,55.7924442 C224.214417,55.3660291 223.40548,55.2728574 222.6814,55.5417 L91.4793,104.2569 C90.750705,104.52736 90.196491,105.131506 89.989731,105.880672 C89.7829709,106.629838 89.9488624,107.432724 90.4356,108.0386 L119.2331,143.8894 Z M162.1945,93.6738 C165.050991,92.6122328 168.217273,92.7643999 170.9588,94.095 C176.73916,96.8952089 179.285825,103.753373 176.734,109.6476 C174.972313,113.728853 170.955337,116.374331 166.5101,116.3808 C161.614808,116.331294 157.263703,113.250385 155.5912,108.6494 C153.289341,102.690783 156.242626,95.9930386 162.1945,93.6738 Z"/>
    <path fill="#C0C9C9" d="M169.9472 114.5529C172.496875 113.605658 174.548779 111.657722 175.6272 109.1607 177.915885 103.864359 175.628622 97.704962 170.4378 95.1861 169.075138 94.5297447 167.582693 94.187148 166.0702 94.1835 164.890515 94.1841788 163.720425 94.3954601 162.615 94.8074 157.352749 96.9597228 154.746836 102.89857 156.726003 108.228361 158.705169 113.558153 164.555664 116.356795 169.9473 114.5529L169.9472 114.5529zM161.5317 101.1746C161.855684 100.782793 162.367504 100.598782 162.8668 100.6946L170.0055 102.0046C170.494642 102.094458 170.900331 102.435236 171.073271 102.901525 171.246212 103.367814 171.16085 103.890716 170.8486 104.2778L166.2952 109.9285C166.031096 110.261526 165.629138 110.455414 165.2041 110.454801 165.125786 110.454801 165.047602 110.448449 164.9703 110.4359 164.467895 110.35766 164.04795 110.012062 163.8745 109.5341L161.2892 102.5734C161.10915 102.097775 161.202057 101.561863 161.5317 101.1746zM227.7445 110.982C227.627731 110.669602 227.280421 110.51034 226.9675 110.6257L124.1812 148.79C123.976047 148.863083 123.826063 149.040869 123.788579 149.255401 123.751095 149.469934 123.831906 149.688045 124.000122 149.826365 124.168338 149.964685 124.397953 150.001829 124.6012 149.9236L227.3875 111.7596C227.53808 111.703985 227.660345 111.590745 227.72732 111.444863 227.794295 111.298981 227.800476 111.132446 227.7445 110.982L227.7445 110.982zM227.2289 115.8616L127.3648 152.9409C127.159647 153.013983 127.009663 153.191769 126.972179 153.406301 126.934695 153.620834 127.015506 153.838945 127.183722 153.977265 127.351938 154.115585 127.581553 154.152729 127.7848 154.0745L227.6489 116.9953C227.855276 116.923108 228.006598 116.74512 228.044643 116.529817 228.082689 116.314514 228.001531 116.095445 227.832395 115.956897 227.663258 115.818349 227.432498 115.78191 227.2289 115.8616L227.2289 115.8616zM227.3722 120.1879L130.3587 156.2087C130.153547 156.281783 130.003563 156.459569 129.966079 156.674101 129.928595 156.888634 130.009406 157.106745 130.177622 157.245065 130.345838 157.383385 130.575453 157.420529 130.7787 157.3423L227.7921 121.3215C227.997253 121.248417 228.147237 121.070631 228.184721 120.856099 228.222205 120.641566 228.141394 120.423455 227.973178 120.285135 227.804962 120.146815 227.575347 120.109671 227.3721 120.1879L227.3722 120.1879z"/>
    <polygon fill="#C0C9C9" points="287.215 21.547 286.997 20.959 286.795 20.414 19.944 119.494 20.155 120.062 20.364 120.628 20.491 120.581 287.085 21.596"/>
    <path fill="#97A0A0" d="M163.8745,109.5338 C164.04795,110.011762 164.467895,110.35736 164.9703,110.4356 C165.047602,110.448149 165.125786,110.454501 165.2041,110.454501 C165.629138,110.455114 166.031096,110.261226 166.2952,109.9282 L170.8486,104.2775 C171.16085,103.890416 171.246212,103.367514 171.073271,102.901225 C170.900331,102.434936 170.494642,102.094158 170.0055,102.0043 L162.8668,100.6943 C162.367691,100.602685 161.857828,100.786135 161.531504,101.174741 C161.20518,101.563348 161.112659,102.097252 161.2892,102.573 L163.8745,109.5338 Z M162.4575,101.9524 C162.494555,101.906935 162.549949,101.880356 162.6086,101.8799 C162.621833,101.8799 162.635031,101.881266 162.648,101.8839 L169.7866,103.1939 C169.856553,103.20664 169.914605,103.255323 169.939337,103.321987 C169.96407,103.388652 169.951817,103.463417 169.9071,103.5187 L165.3537,109.1698 C165.30878,109.226762 165.236295,109.254582 165.1648,109.2423 C165.092507,109.232019 165.032025,109.18219 165.0081,109.1132 L162.4228,102.1524 C162.395998,102.084496 162.40939,102.007307 162.4575,101.9524 L162.4575,101.9524 Z"/>
    <path fill="#97A0A0" d="M166.51,116.3808 C170.955237,116.374331 174.972213,113.728853 176.7339,109.6476 C179.285725,103.753373 176.73906,96.8952089 170.9587,94.095 C168.217173,92.7643999 165.050891,92.6122328 162.1944,93.6738 C156.242526,95.9930386 153.289241,102.690783 155.5911,108.6494 C157.263603,113.250385 161.614708,116.331294 166.51,116.3808 L166.51,116.3808 Z M162.6148,94.8074 C163.720225,94.3954601 164.890315,94.1841788 166.07,94.1835 C167.582493,94.187148 169.074938,94.5297447 170.4376,95.1861 C175.628422,97.704962 177.915685,103.864359 175.627,109.1607 C174.548579,111.657722 172.496675,113.605658 169.947,114.5529 C164.555364,116.356795 158.704869,113.558153 156.725703,108.228361 C154.746536,102.89857 157.352449,96.9597228 162.6147,94.8074 L162.6148,94.8074 Z"/>
    <path fill="#D9E7E8" d="M155.476 188.745L152.369 180.3775 152.369 180.3775 151.2354 180.7987 151.2354 180.7987 154.3424 189.1662 142.8624 193.4288 139.7553 185.0613 139.7553 185.0613 139.2371 185.2538 138.6217 185.4825 141.7285 193.8498 130.2477 198.1126 127.1407 189.7451 127.1407 189.7451 126.1393 190.1172 126.007 190.1663 129.1139 198.5338 117.6339 202.7963 114.5271 194.4289 114.5271 194.4289 114.3019 194.5125 113.3935 194.8501 116.5003 203.2174 97.6889 210.202 97.707 210.2507 98.1093 211.3356 98.1093 211.3356 116.8262 204.3861 121.2322 216.2533 102.5154 223.2026 102.3513 223.2636 102.7713 224.3972 102.9358 224.3361 127.4322 215.2407 131.8663 227.1822 107.37 236.2767 107.3549 236.2824 107.7749 237.416 107.7907 237.4102 139.1219 225.777 143.5003 237.5699 112.1693 249.2029 112.1543 249.2084 112.3602 249.7637 112.5747 250.342 112.5901 250.3363 162.3149 231.8738 166.7214 243.7408 116.9962 262.2035 116.9809 262.2092 117.4009 263.3429 117.4166 263.337 134.0946 257.1446 138.486 268.9708 138.486 268.9708 139.6196 268.5496 139.6196 268.5496 135.228 256.7233 147.1789 252.286 151.5699 264.1125 151.5699 264.1125 151.601 264.1009 152.7035 263.6909 148.3127 251.8647 160.5485 247.3216 164.9395 259.148 164.9395 259.148 165.6941 258.868 166.0731 258.7271 161.6821 246.9007 173.9764 242.3359 178.3682 254.1621 178.3682 254.1621 179.3282 253.8055 179.5022 253.7409 175.1106 241.9148 249.6617 214.2342 254.0527 226.0607 254.0527 226.0607 254.9735 225.7186 255.1863 225.6395 250.796 213.814 263.126 209.2358 267.517 221.0623 267.517 221.0623 267.6539 221.0114 268.6506 220.6414 264.2596 208.8151 275.8737 204.5029 280.2655 216.3291 280.2655 216.3291 281.2877 215.9491 281.3991 215.9077 277.0075 204.0815 289.11 199.588 293.5012 211.4145 293.5012 211.4145 294.6348 210.9933 294.6348 210.9933 290.2438 199.1668 306.8094 193.016 306.3894 191.8824 268.7688 205.8508 264.3624 193.984 301.9833 180.0156 301.8508 179.6584 301.5629 178.882 301.5629 178.882 270.7766 190.3128 266.3978 178.5198 297.1835 167.09 296.8426 166.1708 296.7631 165.9563 296.7631 165.9563 271.7563 175.2412 267.3222 163.3 292.18 154.07 291.76 152.9363 273.737 159.6282 269.3311 147.7609 287.3539 141.0691 286.9339 139.9355 269.0039 146.5926 265.8976 138.2249 264.764 138.646 267.8703 147.0136 256.3903 151.2761 253.2833 142.9086 253.2833 142.9086 252.9493 143.0327 252.1493 143.3298 255.2562 151.6972 243.7762 155.9598 240.6694 147.5923 239.5358 148.0134 242.6426 156.3807 231.1617 160.6434 228.0549 152.2759 228.0549 152.2759 226.9213 152.6971 226.9213 152.6971 230.0283 161.0646 218.5483 165.3271 215.44 156.96 215.44 156.96 214.4792 157.3169 214.3064 157.3812 217.4132 165.7487 205.9326 170.0115 202.8261 161.6437 202.8261 161.6437 202.6417 161.7122 201.6925 162.0648 204.7988 170.4324 193.3188 174.695 190.2118 166.3275 190.2118 166.3275 189.5442 166.5756 189.0781 166.7487 192.185 175.1161 180.705 179.3787 177.5982 171.0112 176.4646 171.4324 179.5714 179.7996 168.09 184.0615 164.9832 175.694 164.9832 175.694 163.8496 176.1151 163.8496 176.1151 166.9564 184.4827 155.476 188.745zM255.5822 152.8658L259.9885 164.7328 248.5077 168.9956 244.1019 157.1284 255.5822 152.8658zM145.6143 222.0768L141.1808 210.1351 152.6608 205.8726 157.0943 217.8142 145.6143 222.0768zM154.6685 190.3345L159.0751 202.2014 147.5944 206.4642 143.1885 194.597 154.6685 190.3345zM177.8896 196.5054L182.3232 208.447 170.8432 212.7095 166.4091 200.7682 177.8896 196.5054zM190.5035 191.8219L194.9376 203.7633 183.457 208.026 179.0235 196.0845 190.5035 191.8219zM203.1176 187.1384L207.5515 199.0797 196.0715 203.3423 191.6375 191.401 203.1176 187.1384zM215.7321 182.4547L220.1656 194.3962 208.6856 198.6588 204.2515 186.7175 215.7321 182.4547zM228.3462 177.7712L232.7801 189.7125 221.2992 193.9752 216.8659 182.0338 228.3462 177.7712zM240.9606 173.0875L245.3942 185.0289 233.9142 189.2915 229.48 177.35 240.9606 173.0875zM232.9338 204.3638L228.555 192.571 240.0358 188.3082 244.414 200.1013 232.9338 204.3638zM220.3193 209.0476L215.9409 197.2545 227.4209 192.9919 231.7999 204.7847 220.3193 209.0476zM207.7052 213.731L203.3264 201.9383 214.8073 197.6755 219.1855 209.4685 207.7052 213.731zM195.0913 218.4146L190.7125 206.6218 202.1925 202.3592 206.5713 214.152 195.0913 218.4146zM182.4769 223.0982L178.0985 211.3053 189.5785 207.0427 193.9573 218.8355 182.4769 223.0982zM165.2752 201.1891L169.7093 213.1305 158.2284 217.3933 153.7949 205.4517 165.2752 201.1891zM164.35 216.41L168.729 228.2027 157.249 232.4652 152.87 220.6725 164.35 216.41zM169.8626 227.7817L165.484 215.989 176.9648 211.7262 181.3431 223.5191 169.8626 227.7817zM187.5435 222.5066L191.9493 234.3738 180.4693 238.6363 176.0628 226.7694 187.5435 222.5066zM188.6771 222.0857L200.1571 217.8231 204.564 229.69 193.0833 233.9529 188.6771 222.0857zM201.2912 217.4022L212.7721 213.1394 217.1778 225.0065 205.6978 229.2691 201.2912 217.4022zM213.9057 212.7185L225.3857 208.4559 229.7922 220.3228 218.3114 224.5856 213.9057 212.7185zM226.52 208.035L238 203.7724 242.4064 215.6392 230.9264 219.9018 226.52 208.035zM239.1339 203.3515L250.6147 199.0887 255.0205 210.9558 243.5405 215.2183 239.1339 203.3515zM245.5479 199.6803L241.1695 187.8873 252.6495 183.6247 257.0285 195.4175 245.5479 199.6803zM246.5279 184.608L242.0944 172.6665 253.5744 168.404 258.0083 180.3452 246.5279 184.608zM242.9679 157.5493L247.3739 169.4166 235.8939 173.6791 231.4873 161.8121 242.9679 157.5493zM230.3534 162.2331L234.76 174.1 223.28 178.3626 218.8739 166.4955 230.3534 162.2331zM217.74 166.9165L222.1464 178.7836 210.6657 183.0463 206.26 171.1791 217.74 166.9165zM205.1257 171.6L209.5316 183.4672 198.0516 187.7298 193.6452 175.8628 205.1257 171.6zM192.5112 176.2837L196.9175 188.1507 185.4367 192.4135 181.0309 180.5463 192.5112 176.2837zM179.8971 180.9673L184.3031 192.8344 172.8231 197.097 168.4165 185.23 179.8971 180.9673zM167.2826 185.651L171.689 197.518 160.209 201.7805 155.8027 189.9136 167.2826 185.651zM142.0549 195.0179L146.4606 206.8851 134.9806 211.1477 130.5742 199.2807 142.0549 195.0179zM117.9599 203.9642L129.4399 199.7017 133.8462 211.5686 122.3654 215.8314 117.9599 203.9642zM128.5663 214.8189L140.0472 210.5561 144.4807 222.4977 133.0007 226.7603 128.5663 214.8189zM140.2563 225.3561L151.7363 221.0935 156.1151 232.8861 144.6342 237.149 140.2563 225.3561zM163.4493 231.4529L174.9293 227.1903 179.3357 239.0573 167.8557 243.3198 163.4493 231.4529zM267.635 206.272L256.1541 210.5349 251.7485 198.6678 263.2285 194.4052 267.635 206.272zM269.6426 190.7341L258.1626 194.9966 253.7838 183.2037 265.2638 178.9412 269.6426 190.7341zM270.6226 175.6617L259.1426 179.9243 254.7088 167.983 266.1888 163.7205 270.6226 175.6617zM272.6026 160.0494L261.1226 164.3119 256.7161 152.4449 268.197 148.1821 272.6026 160.0494zM227.3312 286.9237C227.476914 286.990593 227.64324 286.996827 227.793552 286.941027 227.943864 286.885228 228.065833 286.771972 228.1326 286.6262L238.59 263.82C238.726439 263.517028 238.59277 263.160733 238.290719 263.022268 237.988668 262.883803 237.631485 263.015083 237.491 263.3162L227.0341 286.1228C226.967256 286.268399 226.961006 286.434592 227.016727 286.5848 227.072448 286.735008 227.185572 286.856919 227.3312 286.9237zM222.9786 281.39C223.124303 281.456976 223.290661 281.463252 223.440995 281.407444 223.59133 281.351636 223.713295 281.238327 223.78 281.0925L230.1424 267.2151C230.277061 266.912504 230.143148 266.557893 229.842084 266.41984 229.541021 266.281788 229.184927 266.411707 229.0435 266.7112L222.681 280.5886C222.61403 280.734315 222.607769 280.900683 222.663597 281.05102 222.719424 281.201356 222.832755 281.323314 222.9786 281.39L222.9786 281.39zM217.5963 278.6042C217.742022 278.671114 217.90837 278.677347 218.058691 278.621526 218.209012 278.565704 218.330972 278.452408 218.3977 278.3066L222.1166 270.1954C222.206613 269.999083 222.185054 269.769656 222.060045 269.593544 221.935036 269.417432 221.725568 269.321389 221.510545 269.341594 221.295523 269.361799 221.107613 269.495183 221.0176 269.6915L217.2987 277.8028C217.231703 277.948511 217.225427 278.11489 217.281258 278.265234 217.337088 278.415578 217.450437 278.537535 217.5963 278.6042zM267.8211 282.3491L204.75 305.767C204.544847 305.840083 204.394863 306.017869 204.357379 306.232401 204.319895 306.446934 204.400706 306.665045 204.568922 306.803365 204.737138 306.941685 204.966753 306.978829 205.17 306.9006L268.241 283.4827C268.446153 283.409617 268.596137 283.231831 268.633621 283.017299 268.671105 282.802766 268.590294 282.584655 268.422078 282.446335 268.253862 282.308015 268.024247 282.270871 267.821 282.3491L267.8211 282.3491z"/>
    <polygon fill="#A4B1B2" points="314.626 283.953 334.929 276.415 355.84 230.804 348.562 209.934"/>
    <polygon fill="#D9E7E8" points="314.626 283.953 334.929 276.415 355.84 230.804 348.562 209.934" opacity=".21"/>
    <polygon fill="#D9E7E8" points="338.983 184.134 338.983 184.134 339.985 186.833" opacity=".21"/>
    <polygon fill="#A4B1B2" points="300.148 289.329 343.186 195.455 339.985 186.833 338.983 184.134 287.656 293.967"/>
    <polygon fill="#D9E7E8" points="300.148 289.329 343.186 195.455 339.985 186.833 338.983 184.134 287.656 293.967" opacity=".21"/>
    <path fill="#D9E7E8" d="M429.8685,232.4282 L432.8972,239.8882 C434.391598,239.556478 435.907416,240.350698 436.4853,241.7682 L438.0627,245.6537 C438.636913,247.072849 438.103743,248.699231 436.8008,249.503 L439.1287,255.237 L459.69,246.89 L460.0875,247.869 L417.987,264.961 L417.5896,263.9821 L438.1496,255.6349 L435.8217,249.9009 C434.327453,250.232644 432.811785,249.438371 432.2342,248.0209 L430.6567,244.1353 C430.082552,242.716325 430.615477,241.090133 431.9181,240.2862 L428.8894,232.8262 C417.566578,237.730436 412.229979,250.777164 416.87,262.2108 L428.3038,290.3741 C433.023657,301.999773 446.274296,307.598081 457.9,302.8783 L457.9,302.8783 C463.482889,300.611766 467.936734,296.220259 470.281729,290.669869 C472.626724,285.11948 472.670778,278.864871 470.4042,273.282 L458.9704,245.1187 C454.327304,233.685839 441.405838,228.05116 429.8685,232.4282 L429.8685,232.4282 Z M461.1459,279.1762 C459.4191,279.8772 457.0865,278.1482 455.9359,275.3142 C454.7853,272.4802 455.2527,269.6142 456.9794,268.9135 C458.7061,268.2128 461.0388,269.9415 462.1894,272.7755 C463.34,275.6095 462.8726,278.4752 461.1459,279.1762 Z"/>
    <path fill="#B0C0C1" d="M432.388 240.0376C432.553207 239.973526 432.723551 239.92358 432.8972 239.8883L429.8685 232.4283 429.8635 232.4158 428.8845 232.8132 428.8895 232.8257 431.9182 240.2857C432.067515 240.189885 432.224676 240.106888 432.388 240.0376zM435.8218 249.9009L438.1497 255.6349 417.5897 263.9821 417.9871 264.961 460.0876 247.869 459.6901 246.89 439.1291 255.2375 436.8012 249.5035C436.504893 249.70042 436.171926 249.835579 435.8222 249.9009L435.8218 249.9009z"/>
    <path fill="#7A8B8E" d="M431.9182,240.2858 C430.615577,241.089733 430.082652,242.715925 430.6568,244.1349 L432.2343,248.0205 C432.887736,249.629968 434.722182,250.404985 436.33165,249.75155 C437.941118,249.098114 438.716135,247.263668 438.0627,245.6542 L436.4853,241.7687 C436.147928,240.901301 435.438694,240.231375 434.553487,239.943956 C433.66828,239.656536 432.700776,239.782039 431.9182,240.2858 L431.9182,240.2858 Z"/>
    <ellipse cx="459.063" cy="274.045" fill="#D9E7E8" rx="3.375" ry="5.538" transform="rotate(-22.096 459.063 274.045)"/>
    <ellipse cx="459.063" cy="274.045" fill="#FFF" opacity=".61" rx="3.375" ry="5.538" transform="rotate(-22.096 459.063 274.045)"/>
  </g>
</svg>
